# xmcd
#
# Track frame offsets:
#	150
#	17600
#	30717
#	44112
#	62003
#	77854
#	92453
#	110454
#	127849
#	143144
#	155821
#	166135
#	182767
#	196022
#	210558
#
# Disc length: 3029 seconds
#
# Revision: 2
# Processed by: cddbd v1.5.2PL0 Copyright (c) Steve Scherf et al.
# Submitted via: audiograbber 1.83.01
#
DISCID=c30bd30f
DTITLE=Various Artist - CB60103
DYEAR=1998
DGENRE=Karaoke
TTITLE0=Shelton, Ricky Van - I Am A Simple Man
TTITLE1=Diffie, Joe - New Way To Light Up An Old Flame
TTITLE2=Tillis, Pam - Put Yourself In My Place
TTITLE3=Overstreet, Paul - If I Could Bottle This Up
TTITLE4=Reid, Mike - I'll Stop Loving You
TTITLE5=Mattea, Kathy - Whole Lotta Holes
TTITLE6=Wariner, Steve - Leave Him Outta This
TTITLE7=Sawyer Brown - The Walk
TTITLE8=Forester Sisters, The - Love Will
TTITLE9=Restless Heart - You Can Depend On Me
TTITLE10=Travis, Randy - Heroes and Friends
TTITLE11=Dunn, Holly - My Anniversary For Being A Fool
TTITLE12=Collie, Mark - She's Never Coming Back
TTITLE13=Pirates Of The Mississippi, The - Speak Of The Devil
TTITLE14=Lang, K.D. - Lock, Stock and Teardrops
EXTD=
EXTT0=
EXTT1=
EXTT2=
EXTT3=
EXTT4=
EXTT5=
EXTT6=
EXTT7=
EXTT8=
EXTT9=
EXTT10=
EXTT11=
EXTT12=
EXTT13=
EXTT14=
PLAYORDER=
